<?xml version="1.0" standalone="no"?>
<!DOCTYPE svg PUBLIC "-//W3C//DTD SVG 1.1//EN" "http://www.w3.org/Graphics/SVG/1.1/DTD/svg11.dtd">

<svg width="135" height="50" viewBox="0 0 135 50" preserveAspectRatio="none" 
  xmlns="http://www.w3.org/2000/svg"
  xmlns:xlink="http://www.w3.org/1999/xlink">


<polyline points="0.0, 50.0 0.7988165680473372, 46.135928004536716 1.5976331360946745, 47.53227074049722 2.396449704142012, 48.42693282265063 3.195266272189349, 49.22565120140995 3.994082840236686, 47.10626613296383 4.792899408284024, 48.6702757545413 5.591715976331361, 49.65462625587308 6.390532544378698, 48.11097539871452 7.189349112426036, 47.81601218203854 7.988165680473372, 47.540879639663785 8.78698224852071, 46.06417721161008 9.585798816568047, 44.86161219429681 10.384615384615385, 43.42116435484918 11.183431952662723, 43.562052370008566 11.982248520710058, 42.89704672584874 12.781065088757396, 42.8600587283569 13.579881656804734, 42.83486483403035 14.378698224852071, 38.94685656761818 15.177514792899409, 38.674604922131245 15.976331360946745, 42.464891388854596 16.775147928994084, 40.618110295473976 17.57396449704142, 40.88765976787743 18.37278106508876, 37.35100538391462 19.171597633136095, 35.208002244931194 19.970414201183434, 36.055214202643036 20.76923076923077, 36.314158064219306 21.56804733727811, 35.645338577643514 22.366863905325445, 34.20218248085638 23.16568047337278, 38.45299769730767 23.964497041420117, 38.43616400037913 24.763313609467456, 38.27243406693949 25.562130177514792, 37.32743119591423 26.36094674556213, 39.24578443045349 27.159763313609467, 39.42833004745779 27.958579881656807, 39.319233065177166 28.757396449704142, 43.407692061960525 29.55621301775148, 42.95913348511494 30.355029585798817, 42.168621160178596 31.153846153846157, 41.268932173616065 31.95266272189349, 41.06637943747619 32.751479289940825, 39.86641178420385 33.55029585798817, 40.33424283653758 34.349112426035504, 39.60537586446858 35.14792899408284, 41.07533126385043 35.94674556213018, 38.07904223906205 36.74556213017752, 36.96864868907084 37.54437869822485, 36.36958837629293 38.34319526627219, 37.04390959433603 39.142011834319526, 37.1222451264917 39.94082840236687, 34.85246993170599 40.7396449704142, 36.02384398908794 41.53846153846154, 37.13615111421936 42.337278106508876, 38.87952265832413 43.13609467455622, 38.94011476411368 43.93491124260355, 39.797871083474845 44.73372781065089, 39.665482818658816 45.532544378698226, 39.55507412646245 46.33136094674556, 39.846647646933405 47.1301775147929, 39.03593390951466 47.928994082840234, 39.03353433901923 48.72781065088758, 38.4481948104421 49.52662721893491, 37.521589151695714 50.32544378698225, 36.392920182961745 51.124260355029584, 36.53321092007087 51.92307692307693, 36.57296317724702 52.72189349112426, 36.18673856349814 53.5207100591716, 36.235897276937315 54.319526627218934, 33.336643601433 55.11834319526627, 32.199775002407314 55.91715976331361, 30.49428478122757 56.71597633136094, 29.56953463464999 57.514792899408285, 30.945551103134605 58.31360946745562, 30.527185145757567 59.11242603550296, 28.974082494155645 59.91124260355029, 29.04382694332604 60.710059171597635, 28.516122157186413 61.50887573964497, 31.227599303980046 62.307692307692314, 31.734596216059735 63.10650887573964, 31.771411547392553 63.90532544378698, 33.28783665772775 64.70414201183432, 32.34277835338057 65.50295857988165, 32.08457099840123 66.30177514792899, 33.19948738460435 67.10059171597634, 32.17724126555555 67.89940828402366, 31.858531698989967 68.69822485207101, 31.502878646283524 69.49704142011834, 32.81789224572298 70.29585798816568, 32.768077766806954 71.09467455621302, 33.374217960286806 71.89349112426036, 33.72724360667012 72.6923076923077, 36.87341276904724 73.49112426035504, 41.26333967993097 74.28994082840237, 40.93857082789408 75.0887573964497, 39.964634254959634 75.88757396449704, 40.75013671306677 76.68639053254438, 39.95846680557689 77.48520710059172, 34.272675933869415 78.28402366863905, 32.24289528831155 79.0828402366864, 31.956555426798428 79.88165680473374, 32.67681696069905 80.68047337278107, 33.17282501706203 81.4792899408284, 33.68349356466385 82.27810650887574, 35.836641160471835 83.07692307692308, 36.30974686747939 83.87573964497041, 36.43091700761456 84.67455621301775, 36.18059009694185 85.4733727810651, 35.42633624975783 86.27218934911244, 35.65010459931558 87.07100591715975, 34.17804579369417 87.8698224852071, 32.87241517450277 88.66863905325444, 31.042124098848706 89.46745562130178, 31.835762320724598 90.26627218934911, 32.62438902079573 91.06508875739645, 33.65889507438396 91.8639053254438, 34.224180963237885 92.66272189349112, 34.36329746222036 93.46153846153845, 30.952960040944877 94.2603550295858, 31.091589742260172 95.05917159763314, 32.81796663482969 95.85798816568047, 34.545266123688414 96.65680473372781, 29.01641505205483 97.45562130177515, 10.237555680290978 98.2544378698225, 13.104202332981444 99.05325443786982, 4.78314234923356 99.85207100591715, 6.8372544431596545 100.6508875739645, 15.880805544073354 101.44970414201183, 14.646576705645115 102.24852071005917, 11.961042664136345 103.04733727810651, 5.031361596024091 103.84615384615385, 3.9843637846646143 104.64497041420118, 3.2615147543557272 105.44378698224853, 4.406009291584765 106.24260355029585, 1.0838412279075322 107.0414201183432, 0.0 107.84023668639053, 5.7420124015896965 108.63905325443787, 7.680182866398928 109.43786982248521, 10.017860870720668 110.23668639053254, 8.819884899905334 111.03550295857988, 8.753516652901128 111.83431952662723, 10.84421640675708 112.63313609467457, 11.289659597093761 113.43195266272188, 11.905203046355425 114.23076923076923, 11.151150403632535 115.02958579881657, 9.247404146844717 115.82840236686391, 9.054746709057584 116.62721893491124, 8.10324585542201 117.42603550295858, 3.58497216452405 118.22485207100593, 9.231117507343127 119.02366863905324, 13.796039940361569 119.82248520710058, 13.322426952616102 120.62130177514793, 11.561568228547879 121.42011834319527, 29.282278093756343 122.2189349112426, 23.85620486001988 123.01775147928994, 18.075267737853075 123.81656804733728, 14.48407081484129 124.61538461538463, 17.154461212818507 125.41420118343194, 16.913695048469116 126.21301775147928, 17.133690594423022 127.01183431952663, 17.309402170401768 127.81065088757396, 18.799480963162647 128.60946745562129, 17.606634995722047 129.40828402366864, 13.964578167380093 130.20710059171597, 13.77222231387487 131.0059171597633, 12.747404928779172 131.80473372781066, 10.101498250010998 132.60355029585799, 6.763181988290076 133.40236686390534, 5.373394752380903 134.20118343195267, 12.854894016067675" fill="none" stroke="#32ca5b" stroke-width="1.25"/>

</svg>